<mxfile host="Electron" agent="Mozilla/5.0 (X11; Linux x86_64) AppleWebKit/537.36 (KHTML, like Gecko) draw.io/28.0.6 Chrome/138.0.7204.100 Electron/37.2.3 Safari/537.36" version="28.0.6">
  <diagram name="Page-1" id="BrNRFB-jUuzq5zrVCoeO">
    <mxGraphModel dx="570" dy="336" grid="1" gridSize="10" guides="1" tooltips="1" connect="1" arrows="1" fold="1" page="1" pageScale="1" pageWidth="850" pageHeight="1100" math="1" shadow="0">
      <root>
        <mxCell id="0" />
        <mxCell id="1" parent="0" />
        <mxCell id="O7Vckn2Z8JVhSO3JEspw-2" value="" style="ellipse;whiteSpace=wrap;html=1;aspect=fixed;fillColor=none;" vertex="1" parent="1">
          <mxGeometry x="347.5" y="267.5" width="145" height="145" as="geometry" />
        </mxCell>
        <mxCell id="O7Vckn2Z8JVhSO3JEspw-1" value="" style="ellipse;whiteSpace=wrap;html=1;aspect=fixed;" vertex="1" parent="1">
          <mxGeometry x="400" y="320" width="40" height="40" as="geometry" />
        </mxCell>
        <mxCell id="O7Vckn2Z8JVhSO3JEspw-3" value="" style="ellipse;whiteSpace=wrap;html=1;aspect=fixed;fillColor=#3399FF;strokeColor=none;" vertex="1" parent="1">
          <mxGeometry x="365.5" y="286" width="5" height="5" as="geometry" />
        </mxCell>
        <mxCell id="O7Vckn2Z8JVhSO3JEspw-4" value="$$e^-$$" style="text;html=1;align=center;verticalAlign=middle;resizable=0;points=[];autosize=1;strokeColor=none;fillColor=none;" vertex="1" parent="1">
          <mxGeometry x="340" y="256" width="70" height="30" as="geometry" />
        </mxCell>
        <mxCell id="O7Vckn2Z8JVhSO3JEspw-5" value="$$M_0$$" style="text;html=1;align=center;verticalAlign=middle;resizable=0;points=[];autosize=1;strokeColor=none;fillColor=none;" vertex="1" parent="1">
          <mxGeometry x="385" y="325" width="70" height="30" as="geometry" />
        </mxCell>
        <mxCell id="O7Vckn2Z8JVhSO3JEspw-6" value="" style="endArrow=classic;html=1;rounded=0;curved=1;strokeColor=#FF9933;" edge="1" parent="1">
          <mxGeometry width="50" height="50" relative="1" as="geometry">
            <mxPoint x="270" y="290" as="sourcePoint" />
            <mxPoint x="365.5" y="288.5" as="targetPoint" />
            <Array as="points">
              <mxPoint x="275.5" y="278.5" />
              <mxPoint x="285.5" y="298.5" />
              <mxPoint x="295.5" y="278.5" />
              <mxPoint x="305.5" y="298.5" />
              <mxPoint x="315.5" y="278.5" />
              <mxPoint x="325.5" y="298.5" />
              <mxPoint x="335.5" y="278.5" />
              <mxPoint x="345.5" y="298.5" />
              <mxPoint x="355.5" y="278.5" />
            </Array>
          </mxGeometry>
        </mxCell>
      </root>
    </mxGraphModel>
  </diagram>
</mxfile>
